<svg id="Layer_1" data-name="Layer 1" xmlns="http://www.w3.org/2000/svg" viewBox="0 0 48.18 46.98"><path d="M36,20.85a2.66,2.66,0,0,0-1.62-.48,2.8,2.8,0,0,0-2.66,1.52,4.75,4.75,0,0,0-.44,1.43h5.38a1.1,1.1,0,0,0,.47-.16V23a2.36,2.36,0,0,0-.13-.75A2.57,2.57,0,0,0,36,20.85Z"/><path d="M17.16,20.94c-.2-.62-.39-1.23-.58-1.85s-.37-1.2-.54-1.77-.3-1.1-.43-1.57h0a25.72,25.72,0,0,1-.67,2.58c-.31,1-.61,2-.93,3s-.61,2-.92,2.81h5.11c-.13-.43-.28-.92-.45-1.45S17.35,21.55,17.16,20.94Z"/><path d="M39.65,0H8.53A8.53,8.53,0,0,0,0,8.53V38.45A8.53,8.53,0,0,0,8.53,47H39.65a8.53,8.53,0,0,0,8.53-8.53V8.53A8.53,8.53,0,0,0,39.65,0ZM25.53,33.13h-4.2a.32.32,0,0,1-.21-.06A.25.25,0,0,1,21,32.9l-1.65-4.79H11.89l-1.52,4.73a.38.38,0,0,1-.14.21.44.44,0,0,1-.25.08H6.2c-.21,0-.29-.12-.23-.36l6.47-18.54c.06-.19.13-.38.19-.63a6.4,6.4,0,0,0,.13-1.31.28.28,0,0,1,0-.09.22.22,0,0,1,.05-.08l.08,0h5.23c.15,0,.23.06.26.16L25.72,32.8C25.79,33,25.72,33.13,25.53,33.13Zm15.76-8c0,.39-.06.67-.08.84a.35.35,0,0,1-.1.19.32.32,0,0,1-.19.07l-.67.05c-.31,0-.7.05-1.16.06s-1-.06-1.47-.06H31.25a4.56,4.56,0,0,0,.62,1.78,3.28,3.28,0,0,0,1.47,1.21,6.11,6.11,0,0,0,2.57.5A11.23,11.23,0,0,0,38,29.53a7.85,7.85,0,0,0,1.79-.46c.11-.09.17,0,.17.16V32.3a.64.64,0,0,1-.05.24.54.54,0,0,1-.15.15,8.21,8.21,0,0,1-2,.59,14.32,14.32,0,0,1-2.85.25,9.24,9.24,0,0,1-3.84-.71,7,7,0,0,1-2.52-1.91,7.37,7.37,0,0,1-1.39-2.64,10.31,10.31,0,0,1-.42-2.92,9.9,9.9,0,0,1,.5-3.19,8.24,8.24,0,0,1,1.5-2.74,7.13,7.13,0,0,1,2.42-1.91,7.66,7.66,0,0,1,3.37-.63,7.3,7.3,0,0,1,3.12.61,5.64,5.64,0,0,1,2.11,1.6A7.45,7.45,0,0,1,41,21.37a8.6,8.6,0,0,1,.39,2.46C41.34,24.3,41.32,24.73,41.29,25.12Z"/></svg>