<svg width="555" height="295" viewBox="0 0 555 295" fill="none" xmlns="http://www.w3.org/2000/svg">
<circle cx="537.656" cy="17.5" r="17.3438" transform="rotate(90 537.656 17.5)" fill="#F08484"/>
<circle cx="364.219" cy="17.5" r="17.3438" transform="rotate(90 364.219 17.5)" fill="#F08484"/>
<circle cx="190.781" cy="17.5" r="17.3438" transform="rotate(90 190.781 17.5)" fill="#F08484"/>
<circle cx="17.3438" cy="17.5" r="17.3438" transform="rotate(90 17.3438 17.5)" fill="#F08484"/>
<circle cx="537.656" cy="190.938" r="17.3438" transform="rotate(90 537.656 190.938)" fill="#F08484"/>
<circle cx="364.219" cy="190.938" r="17.3438" transform="rotate(90 364.219 190.938)" fill="#F08484"/>
<circle cx="190.781" cy="190.938" r="17.3438" transform="rotate(90 190.781 190.938)" fill="#F08484"/>
<circle cx="17.3438" cy="190.938" r="17.3438" transform="rotate(90 17.3438 190.938)" fill="#F08484"/>
<circle cx="450.938" cy="17.5" r="17.3438" transform="rotate(90 450.938 17.5)" fill="#F08484"/>
<circle cx="277.5" cy="17.5" r="17.3438" transform="rotate(90 277.5 17.5)" fill="#F08484"/>
<circle cx="104.062" cy="17.5" r="17.3438" transform="rotate(90 104.062 17.5)" fill="#F08484"/>
<circle cx="450.938" cy="190.938" r="17.3438" transform="rotate(90 450.938 190.938)" fill="#F08484"/>
<circle cx="277.5" cy="190.938" r="17.3438" transform="rotate(90 277.5 190.938)" fill="#F08484"/>
<circle cx="104.063" cy="190.938" r="17.3438" transform="rotate(90 104.063 190.938)" fill="#F08484"/>
<circle cx="537.656" cy="104.219" r="17.3438" transform="rotate(90 537.656 104.219)" fill="#F08484"/>
<circle cx="364.219" cy="104.219" r="17.3438" transform="rotate(90 364.219 104.219)" fill="#F08484"/>
<circle cx="190.781" cy="104.219" r="17.3438" transform="rotate(90 190.781 104.219)" fill="#F08484"/>
<circle cx="17.3438" cy="104.219" r="17.3438" transform="rotate(90 17.3438 104.219)" fill="#F08484"/>
<circle cx="537.656" cy="277.656" r="17.3438" transform="rotate(90 537.656 277.656)" fill="#F08484"/>
<circle cx="364.219" cy="277.656" r="17.3438" transform="rotate(90 364.219 277.656)" fill="#F08484"/>
<circle cx="190.781" cy="277.656" r="17.3438" transform="rotate(90 190.781 277.656)" fill="#F08484"/>
<circle cx="17.3438" cy="277.656" r="17.3438" transform="rotate(90 17.3438 277.656)" fill="#F08484"/>
<circle cx="450.938" cy="104.219" r="17.3438" transform="rotate(90 450.938 104.219)" fill="#F08484"/>
<circle cx="277.5" cy="104.219" r="17.3438" transform="rotate(90 277.5 104.219)" fill="#F08484"/>
<circle cx="104.062" cy="104.219" r="17.3438" transform="rotate(90 104.062 104.219)" fill="#F08484"/>
<circle cx="450.938" cy="277.656" r="17.3438" transform="rotate(90 450.938 277.656)" fill="#F08484"/>
<circle cx="277.5" cy="277.656" r="17.3438" transform="rotate(90 277.5 277.656)" fill="#F08484"/>
<circle cx="104.063" cy="277.656" r="17.3438" transform="rotate(90 104.063 277.656)" fill="#F08484"/>
</svg>
