<svg width="58" height="57" viewBox="0 0 58 57" fill="none" xmlns="http://www.w3.org/2000/svg">
<g clip-path="url(#clip0_111_303)">
<path d="M29.0718 0.819702C13.4101 0.819702 0.710083 13.558 0.710083 29.2719C0.710083 41.8431 8.83657 52.5081 20.1056 56.2703C21.523 56.5336 22.0435 55.6531 22.0435 54.9016C22.0435 54.2232 22.017 51.9817 22.005 49.6043C14.1145 51.3254 12.4496 46.2473 12.4496 46.2473C11.1595 42.9586 9.30057 42.0843 9.30057 42.0843C6.72743 40.3183 9.49453 40.3545 9.49453 40.3545C12.3426 40.5553 13.8423 43.2866 13.8423 43.2866C16.3718 47.6364 20.4771 46.3787 22.0955 45.6519C22.35 43.8128 23.0852 42.5578 23.8962 41.8473C17.5968 41.1277 10.9744 38.688 10.9744 27.786C10.9744 24.6798 12.0824 22.1415 13.8968 20.149C13.6023 19.4323 12.6316 16.5385 14.1715 12.6194C14.1715 12.6194 16.5531 11.8547 21.973 15.5359C24.2352 14.9053 26.6615 14.5894 29.0718 14.5787C31.4821 14.5894 33.9102 14.9053 36.1769 15.5359C41.5903 11.8547 43.9686 12.6194 43.9686 12.6194C45.5123 16.5385 44.5411 19.4323 44.2466 20.149C46.065 22.1415 47.1654 24.6796 47.1654 27.786C47.1654 38.7139 40.5306 41.1203 34.2152 41.8245C35.2324 42.7075 36.1388 44.4391 36.1388 47.0935C36.1388 50.9003 36.1059 53.9643 36.1059 54.9016C36.1059 55.6587 36.6164 56.5459 38.0542 56.2665C49.3171 52.5001 57.4333 41.8388 57.4333 29.2719C57.4333 13.558 44.7351 0.819702 29.0718 0.819702Z" fill="black"/>
<path d="M11.3325 41.3506C11.2702 41.4919 11.0482 41.5343 10.8465 41.4374C10.6407 41.3446 10.5251 41.1518 10.5918 41.0099C10.653 40.8644 10.875 40.8238 11.0803 40.9215C11.2865 41.0141 11.4039 41.2087 11.3325 41.3506V41.3506ZM12.7276 42.5994C12.5924 42.7252 12.3279 42.6668 12.1484 42.4679C11.9629 42.2696 11.9282 42.0045 12.0654 41.8766C12.2049 41.751 12.4614 41.8096 12.6473 42.0082C12.8328 42.2089 12.8689 42.4724 12.7274 42.5996L12.7276 42.5994ZM13.6848 44.1971C13.5108 44.3182 13.2266 44.2047 13.0511 43.9516C12.8773 43.6988 12.8773 43.3953 13.0548 43.2737C13.231 43.1521 13.5108 43.2614 13.6888 43.5125C13.8623 43.7698 13.8623 44.0732 13.6845 44.1973L13.6848 44.1971ZM15.3032 46.0476C15.1477 46.2194 14.8168 46.1735 14.5743 45.9387C14.3265 45.7093 14.2573 45.3838 14.4133 45.2117C14.5705 45.0395 14.9035 45.0879 15.1477 45.3206C15.394 45.5496 15.4692 45.8776 15.3034 46.0476H15.3032ZM17.395 46.6724C17.3267 46.8951 17.0077 46.9964 16.6865 46.9018C16.3658 46.8043 16.1558 46.5432 16.2205 46.3181C16.2873 46.0938 16.6076 45.9883 16.9312 46.0896C17.2515 46.1866 17.462 46.4457 17.3952 46.6724H17.395ZM19.776 46.9373C19.784 47.1721 19.5115 47.3666 19.1743 47.3709C18.8351 47.3782 18.5608 47.1883 18.5572 46.9576C18.5572 46.7206 18.8235 46.5278 19.1625 46.5223C19.4997 46.5156 19.776 46.7041 19.776 46.9373V46.9373ZM22.1147 46.8474C22.1551 47.0763 21.9207 47.3115 21.5859 47.374C21.2567 47.4343 20.952 47.293 20.9099 47.0661C20.869 46.8313 21.1079 46.5963 21.4365 46.5354C21.7719 46.477 22.072 46.6146 22.1147 46.8474" fill="black"/>
</g>
<defs>
<clipPath id="clip0_111_303">
<rect width="56.9437" height="55.5715" fill="white" transform="translate(0.710083 0.819702)"/>
</clipPath>
</defs>
</svg>
