<svg id="Layer_1" data-name="Layer 1" xmlns="http://www.w3.org/2000/svg" viewBox="0 0 48.18 46.98"><path d="M39.65,0H8.53A8.53,8.53,0,0,0,0,8.53V38.45A8.53,8.53,0,0,0,8.53,47H39.65a8.53,8.53,0,0,0,8.53-8.53V8.53A8.53,8.53,0,0,0,39.65,0ZM29.52,33.2h-4.2a.29.29,0,0,1-.2-.05A.26.26,0,0,1,25,33l-1.65-4.79H15.88l-1.52,4.72a.4.4,0,0,1-.14.22.36.36,0,0,1-.24.07H10.19c-.21,0-.29-.12-.22-.35l6.46-18.62c.07-.19.13-.42.2-.66a8.19,8.19,0,0,0,.13-1.31.14.14,0,0,1,0-.09.22.22,0,0,1,0-.08l.08-.05h5.23c.15,0,.24.06.26.16l7.34,20.69C29.78,33.1,29.72,33.2,29.52,33.2Zm6.82-.32c0,.22-.08.32-.26.32H32.14c-.19,0-.29-.1-.29-.32V17.43c0-.19.09-.29.26-.29h4c.18,0,.26.1.26.29Zm.13-19a2.3,2.3,0,0,1-1.39,1.4,2.62,2.62,0,0,1-1,.16,2.48,2.48,0,0,1-1-.17,2.45,2.45,0,0,1-.81-.54,2.61,2.61,0,0,1-.52-.86,2.54,2.54,0,0,1-.16-1,2.32,2.32,0,0,1,.18-1,2.28,2.28,0,0,1,.55-.82,2.5,2.5,0,0,1,.83-.53,2.83,2.83,0,0,1,2.79.53,2.47,2.47,0,0,1,.66,1.79A2.44,2.44,0,0,1,36.47,13.9Z"/><path d="M21.15,20.94c-.19-.62-.39-1.23-.58-1.85s-.37-1.2-.53-1.77-.31-1.1-.44-1.57h0a25.77,25.77,0,0,1-.68,2.58l-.92,3c-.32,1-.62,2-.92,2.81h5.1c-.13-.43-.28-.92-.45-1.45S21.34,21.55,21.15,20.94Z"/></svg>