<svg width="514" height="514" viewBox="0 0 514 514" fill="none" xmlns="http://www.w3.org/2000/svg">
<path d="M475.952 0H37.9477C16.966 0 0 16.5645 0 37.0441V476.855C0 497.335 16.966 514 37.9477 514H475.952C496.934 514 514 497.335 514 476.956V37.0441C514 16.5645 496.934 0 475.952 0ZM152.493 438.004H76.1965V192.65H152.493V438.004ZM114.345 159.22C89.8496 159.22 70.0727 139.443 70.0727 115.048C70.0727 90.6527 89.8496 70.8758 114.345 70.8758C138.74 70.8758 158.517 90.6527 158.517 115.048C158.517 139.342 138.74 159.22 114.345 159.22ZM438.004 438.004H361.808V318.74C361.808 290.33 361.306 253.687 322.153 253.687C282.499 253.687 276.476 284.708 276.476 316.732V438.004H200.38V192.65H273.464V226.18H274.468C284.607 206.905 309.504 186.526 346.548 186.526C423.749 186.526 438.004 237.323 438.004 303.38V438.004V438.004Z" fill="black"/>
</svg>
