<?xml version="1.0" encoding="utf-8"?>
<!-- Generator: Adobe Illustrator 22.1.0, SVG Export Plug-In . SVG Version: 6.00 Build 0)  -->
<svg version="1.1" xmlns="http://www.w3.org/2000/svg" xmlns:xlink="http://www.w3.org/1999/xlink" x="0px" y="0px"
	 viewBox="0 0 1400 1400" style="enable-background:new 0 0 1400 1400;" xml:space="preserve">
<style type="text/css">
	.st0{fill:#F7F8FB;}
	.st1{fill:url(#SVGID_1_);}
	.st2{opacity:0.43;fill:#0991D1;}
	.st3{fill:url(#SVGID_2_);}
	.st4{fill:#FFFFFF;}
	.st5{fill:url(#SVGID_3_);}
	.st6{fill:url(#SVGID_4_);}
	.st7{opacity:0.63;}
	.st8{fill:#EFAD89;}
	.st9{fill:url(#SVGID_5_);}
	.st10{fill:#F7CCB0;}
	.st11{fill:url(#SVGID_6_);}
	.st12{fill:url(#SVGID_7_);}
	.st13{fill:url(#SVGID_8_);}
	.st14{fill:url(#SVGID_9_);}
	.st15{fill:url(#SVGID_10_);}
	.st16{fill:#2D2D30;}
	.st17{fill:url(#SVGID_11_);}
	.st18{fill:url(#SVGID_12_);}
	.st19{fill:url(#SVGID_13_);}
	.st20{fill:#CE5706;}
</style>
<g id="BACKGROUND">
	<rect class="st0" width="1400" height="1400"/>
</g>
<g id="OBJECT">
	<g>
		<linearGradient id="SVGID_1_" gradientUnits="userSpaceOnUse" x1="1221.0936" y1="1252.8337" x2="261.2634" y2="293.0035">
			<stop  offset="0" style="stop-color:#0990D1"/>
			<stop  offset="0.3908" style="stop-color:#05A9E3"/>
			<stop  offset="1" style="stop-color:#00CFFF"/>
		</linearGradient>
		<path class="st1" d="M1327.2,759.3c0,208.1-102.4,357.7-259.5,443.1c-34.1,18.5-70.8,34.1-109.5,46.5c-6.3,2-12.7,4-19.2,5.9
			c-71.8,20.8-150.3,31.4-232.5,31.4c-68.3,0-134.1-7.3-195.5-21.7c-13.1-3.1-26-6.5-38.7-10.2c-6.4-1.9-12.8-3.8-19.1-5.9
			c-38.2-12.4-74.3-27.7-107.9-46c-51.2-27.8-96.6-62.5-134.5-103.7c-78.5-85.4-125-199-125-339.3c0-342.8,277.9-620.7,620.7-620.7
			C1049.3,138.6,1327.2,416.5,1327.2,759.3z"/>
		<path class="st2" d="M1327.2,759.3c0,96.7-22.1,180.7-61.5,251.6c-45.4,81.6-113.9,145.8-198,191.5c-11.4,6.2-23.1,12.1-35,17.6
			c-23.8,11-48.7,20.6-74.5,28.9c-6.3,2-12.7,4-19.2,5.9c-71.8,20.8-150.3,31.4-232.5,31.4V687.6L879.3,288l447.5,447.5
			C1327.1,743.4,1327.2,751.3,1327.2,759.3z"/>
		<g>
			<g>
				<linearGradient id="SVGID_2_" gradientUnits="userSpaceOnUse" x1="441.3132" y1="1675.8384" x2="330.2926" y2="752.6143">
					<stop  offset="0" style="stop-color:#13BCB3"/>
					<stop  offset="1" style="stop-color:#5DF9D4"/>
				</linearGradient>
				<path class="st3" d="M511,1264.4c-13.1-3.1-26-6.5-38.7-10.2c-6.4-1.9-12.8-3.8-19.1-5.9c-38.2-12.4-74.3-27.7-107.9-46
					c-51.2-27.8-96.6-62.5-134.5-103.7c45,17,92.7,47.6,93.7,48.2c-2.8-3.6-194.7-252.7-161.5-300.4c32.9-47.2,142.2,104,145.8,109
					c-2.7-7.6-122.3-338.3-34.7-347.6c88.5-9.3,128.1,346.4,128.1,346.4s1.5-202.4,68.4-183.8c66.2,18.5-10.2,339.1-11.9,346.1
					c1.8-5.4,64.4-191.2,111.2-167.5C585.3,966.9,537.8,1164.1,511,1264.4z"/>
				<g>
					<path class="st4" d="M386,1222.6c-11.2-89.5-30-193-47.1-278.9c-30.3-152.4-62-283.7-62.3-285c-0.2-0.7-0.8-1.1-1.5-0.9
						c-0.7,0.2-1.1,0.8-0.9,1.5c0.3,1.3,32,132.6,62.3,284.9c24.1,120.8,38.5,210.6,46.9,277.2L386,1222.6z"/>
					<path class="st4" d="M369,1113.4c-0.3,0-0.6-0.1-0.8-0.3c-85.1-75.3-176.2-199-177.1-200.3c-0.4-0.6-0.3-1.3,0.3-1.7
						c0.6-0.4,1.3-0.3,1.7,0.3c0.9,1.2,91.9,124.8,176.7,199.9c0.5,0.5,0.6,1.2,0.1,1.8C369.7,1113.3,369.4,1113.4,369,1113.4z"/>
					<path class="st4" d="M364.1,1086.2c-0.4,0-0.8-0.2-1.1-0.6c-0.4-0.6-0.2-1.3,0.4-1.7c22.4-13.7,42.2-58.4,57.4-129.3
						c11.5-53.8,16.4-104,16.4-104.5c0.1-0.7,0.7-1.2,1.4-1.1c0.7,0.1,1.2,0.7,1.1,1.4c0,0.5-4.9,50.9-16.5,104.8
						c-15.6,72.6-35.3,116.7-58.5,130.9C364.5,1086.1,364.3,1086.2,364.1,1086.2z"/>
					<path class="st4" d="M386.7,1237.7c-0.5,0-1-0.3-1.2-0.8c-0.2-0.6,0.1-1.4,0.8-1.6c24.5-8.2,47.2-24.7,67.4-48.8
						c16.3-19.4,31-43.8,43.8-72.5c21.8-49,30.6-94,30.7-94.5c0.1-0.7,0.8-1.1,1.5-1c0.7,0.1,1.1,0.8,1,1.5
						c-0.1,0.5-8.9,45.8-30.8,95c-12.9,28.9-27.8,53.5-44.2,73.1c-20.6,24.5-43.6,41.2-68.5,49.6
						C387,1237.6,386.8,1237.7,386.7,1237.7z"/>
				</g>
			</g>
			<g>
				<linearGradient id="SVGID_3_" gradientUnits="userSpaceOnUse" x1="903.6876" y1="1401.1329" x2="1107.98" y2="715.4388">
					<stop  offset="0" style="stop-color:#13BCB3"/>
					<stop  offset="1" style="stop-color:#5DF9D4"/>
				</linearGradient>
				<path class="st5" d="M1265.7,1010.9c-45.4,81.6-113.9,145.8-198,191.5c-11.4,6.2-23.1,12.1-35,17.6l-157.3,2.4
					c-31.4-109.8-91.3-339.4-51.2-360.5c51.7-27.1,124.4,176.6,127.8,186.1c-3.2-12.8-92.8-366.7-19.2-388.5
					c74.9-22.1,80,205.3,80,205.3s25-260.6,86.9-356.5c14.8-23,31.8-36.5,51-34.8c36,3.2,41.6,55.1,34.2,120.1
					c-13,113.4-65.8,266.7-67.3,271.1c3.2-4.6,124-177.6,162-125c38.1,52.9-172.4,335.1-176.2,340.2
					C1106.4,1077.8,1212.1,1008.1,1265.7,1010.9z"/>
				<g>
					<path class="st4" d="M1063.9,852.7c-31.7,173.1-46.9,289.5-53.3,367.6l-2.8,0c9-111,32.3-253.5,53.3-368.2
						c31.5-171.7,64.8-319.8,65.1-321.2c0.2-0.8,0.9-1.2,1.7-1.1c0.8,0.2,1.2,0.9,1.1,1.7C1128.7,533,1095.4,681,1063.9,852.7z"/>
					<path class="st4" d="M1030.3,1043.4c0.3,0,0.7-0.1,0.9-0.4c94.3-86,194.5-226.6,195.5-228c0.4-0.6,0.3-1.5-0.3-1.9
						c-0.6-0.4-1.5-0.3-1.9,0.3c-1,1.4-101,141.7-195.1,227.6c-0.6,0.5-0.6,1.4-0.1,2C1029.5,1043.3,1029.9,1043.4,1030.3,1043.4z"
						/>
					<path class="st4" d="M1035.4,1012.7c0.5,0,0.9-0.3,1.2-0.7c0.4-0.7,0.2-1.5-0.5-1.9c-25.3-15-48.4-64.9-66.7-144.3
						c-13.9-60.2-20.2-116.6-20.2-117.2c-0.1-0.8-0.8-1.3-1.5-1.2c-0.8,0.1-1.3,0.8-1.2,1.5c0.1,0.6,6.4,57.1,20.3,117.5
						c18.7,81.3,41.6,130.5,68,146.1C1034.9,1012.6,1035.1,1012.7,1035.4,1012.7z"/>
					<path class="st4" d="M1011.8,1194.3c0.1,0,0.3,0,0.4-0.1c99.9-32.8,216-130.9,217.1-131.9c0.6-0.5,0.7-1.4,0.2-2
						c-0.5-0.6-1.4-0.7-2-0.2c-1.2,1-116.8,98.7-216.2,131.4c-0.7,0.2-1.1,1-0.9,1.8C1010.6,1193.9,1011.2,1194.3,1011.8,1194.3z"/>
					<path class="st4" d="M1012.6,1183.3c0.6,0,1.1-0.4,1.3-1c0.2-0.7-0.2-1.5-0.9-1.8c-27.6-8.8-53.4-26.9-76.6-53.7
						c-18.6-21.5-35.6-48.7-50.4-80.7c-25.4-54.6-36-105.1-36.1-105.6c-0.2-0.8-0.9-1.2-1.6-1.1c-0.8,0.2-1.2,0.9-1.1,1.6
						c0.1,0.5,10.8,51.3,36.3,106.2c15,32.3,32.1,59.7,50.9,81.4c23.5,27.2,49.7,45.6,77.9,54.5
						C1012.3,1183.2,1012.4,1183.3,1012.6,1183.3z"/>
				</g>
			</g>
		</g>
		<g>
			<linearGradient id="SVGID_4_" gradientUnits="userSpaceOnUse" x1="706.4899" y1="998.1579" x2="706.4899" y2="785.1576">
				<stop  offset="0" style="stop-color:#FEE0CC"/>
				<stop  offset="1" style="stop-color:#F7CCB0"/>
			</linearGradient>
			<path class="st6" d="M877.2,908.8L776,888.9V701.6H637v187.3l-101.3,19.9c-34.8,6.8-59.9,37.3-59.9,72.8v105.3h461.3V981.6
				C937.2,946.1,912.1,915.6,877.2,908.8z"/>
			<g class="st7">
				<path class="st8" d="M637,701.6v151c21.3,8.5,44.7,13.3,69.3,13.3h0.4c24.5,0,48-4.7,69.3-13.3v-151H637z"/>
			</g>
			<g>
				<linearGradient id="SVGID_5_" gradientUnits="userSpaceOnUse" x1="706.4897" y1="572.4319" x2="706.4897" y2="256.3745">
					<stop  offset="0" style="stop-color:#9E611E"/>
					<stop  offset="1" style="stop-color:#7A430C"/>
				</linearGradient>
				<path class="st9" d="M927,560.5H486V368.4c0-48.1,39-87.1,87.1-87.1h266.9c48.1,0,87.1,39,87.1,87.1V560.5z"/>
			</g>
			<g>
				<g>
					<path class="st10" d="M553,559.3c8.8,36,16.6,86.7-6.8,91.5c-23.4,4.7-69.1-38.4-77.9-74.4c-8.8-36,3-69,26.4-73.7
						C518.1,497.9,544.2,523.3,553,559.3z"/>
				</g>
				<g>
					<path class="st8" d="M539.4,568c4.8,19.5,9,46.9-3.7,49.5c-12.7,2.6-37.4-20.8-42.2-40.2c-4.8-19.5,1.6-37.3,14.3-39.9
						C520.5,534.8,534.7,548.5,539.4,568z"/>
				</g>
				<g>
					<path class="st10" d="M860,559.3c-8.8,36-16.6,86.7,6.8,91.5c23.4,4.7,69.1-38.4,77.9-74.4c8.8-36-3-69-26.4-73.7
						C894.9,497.9,868.8,523.3,860,559.3z"/>
				</g>
				<g>
					<path class="st8" d="M871.5,563.4c-5,20.6-9.5,49.6,3.9,52.3c13.4,2.7,39.5-22,44.6-42.6c5-20.6-1.7-39.5-15.1-42.2
						C891.5,528.3,876.5,542.8,871.5,563.4z"/>
				</g>
			</g>
			<g>
				<linearGradient id="SVGID_6_" gradientUnits="userSpaceOnUse" x1="634.5701" y1="798.1506" x2="712.8156" y2="459.7385">
					<stop  offset="0" style="stop-color:#FEE0CC"/>
					<stop  offset="1" style="stop-color:#F7CCB0"/>
				</linearGradient>
				<path class="st11" d="M706.7,827.2h-0.4c-80.5,0-149.1-52.9-161.7-124.7l-37.2-212.7c-19.3-110.4,75.2-210.2,199.1-210.2h0
					c123.8,0,218.3,99.8,199.1,210.2l-37.2,212.7C855.8,774.3,787.3,827.2,706.7,827.2z"/>
				<linearGradient id="SVGID_7_" gradientUnits="userSpaceOnUse" x1="505.004" y1="687.0184" x2="533.6064" y2="563.3126">
					<stop  offset="0" style="stop-color:#FEE0CC"/>
					<stop  offset="1" style="stop-color:#F7CCB0"/>
				</linearGradient>
				<path class="st12" d="M544.6,702.5l-37.2-212.7"/>
				<g>
					<path class="st8" d="M711.2,438c48.2-10.1,98-32.3,144.5-73.8c0,0,5.4-4.8,11.4-12.7c-36.5-43.4-94.4-71.9-160.5-71.9h0
						c-91.5,0-167,54.6-192.4,127.6C564.9,438.8,635.4,453.9,711.2,438z"/>
				</g>
			</g>
			<g>
				<path class="st8" d="M651.7,755.9c12.8-12.7,32.7-20.7,55-20.6c22.3,0.2,42,8.6,54.6,21.4L651.7,755.9z"/>
			</g>
			<g>
				<path class="st10" d="M719.6,783h-26.2c-4,0-7.2-3.2-7.2-7.2l0,0c0-4,3.2-7.2,7.2-7.2h26.2c4,0,7.2,3.2,7.2,7.2l0,0
					C726.8,779.7,723.6,783,719.6,783z"/>
			</g>
			<g>
				<g>
					<linearGradient id="SVGID_8_" gradientUnits="userSpaceOnUse" x1="529.2039" y1="484.9552" x2="662.1216" y2="484.9552">
						<stop  offset="0" style="stop-color:#9E611E"/>
						<stop  offset="1" style="stop-color:#7A430C"/>
					</linearGradient>
					<path class="st13" d="M537.9,512.6c-2,0-4.1-0.7-5.7-2.1c-3.7-3.2-4.1-8.7-0.9-12.3c0.5-0.6,13.4-15.3,35-26.9
						c29-15.5,60.1-18,90-7.3c4.5,1.6,6.9,6.6,5.3,11.2c-1.6,4.5-6.6,6.9-11.2,5.3c-25.5-9.1-51-7-75.8,6.3
						c-18.8,10.1-29.9,22.8-30,22.9C542.8,511.5,540.4,512.6,537.9,512.6z"/>
				</g>
				<g>
					<linearGradient id="SVGID_9_" gradientUnits="userSpaceOnUse" x1="750.8577" y1="484.9552" x2="883.7755" y2="484.9552">
						<stop  offset="0" style="stop-color:#9E611E"/>
						<stop  offset="1" style="stop-color:#7A430C"/>
					</linearGradient>
					<path class="st14" d="M875,512.6c-2.4,0-4.9-1-6.6-3c-0.3-0.3-11.7-13.2-30.5-23.2c-24.7-13.1-50.1-15.1-75.3-6
						c-4.5,1.6-9.6-0.7-11.2-5.3c-1.6-4.5,0.7-9.6,5.3-11.2c29.9-10.7,61-8.2,90,7.3c21.6,11.6,34.5,26.3,35,26.9
						c3.2,3.7,2.8,9.2-0.9,12.3C879.1,511.9,877.1,512.6,875,512.6z"/>
				</g>
			</g>
			<g>
				<g>
					<path class="st0" d="M607.8,474.6c-39.4,0-71.3,31.9-71.3,71.3c0,39.4,31.9,71.3,71.3,71.3s71.3-31.9,71.3-71.3
						C679.1,506.5,647.2,474.6,607.8,474.6z M607.8,605.2c-32.8,0-59.4-26.6-59.4-59.4c0-32.8,26.6-59.4,59.4-59.4
						c32.8,0,59.4,26.6,59.4,59.4C667.2,578.6,640.6,605.2,607.8,605.2z"/>
				</g>
				<g>
					<path class="st0" d="M805.2,474.6c-39.4,0-71.3,31.9-71.3,71.3c0,39.4,31.9,71.3,71.3,71.3c39.4,0,71.3-31.9,71.3-71.3
						C876.4,506.5,844.5,474.6,805.2,474.6z M805.2,605.2c-32.8,0-59.4-26.6-59.4-59.4c0-32.8,26.6-59.4,59.4-59.4
						c32.8,0,59.4,26.6,59.4,59.4C864.5,578.6,838,605.2,805.2,605.2z"/>
				</g>
				<g>
					<path class="st0" d="M738.9,557.4c-18.3-15.3-44.8-15.3-63,0l-8.4-10.1c23.1-19.4,56.7-19.4,79.9,0L738.9,557.4z"/>
				</g>
			</g>
			<g>
				<g>
					<g>
						<linearGradient id="SVGID_10_" gradientUnits="userSpaceOnUse" x1="594.6951" y1="543.783" x2="627.2837" y2="543.783">
							<stop  offset="0" style="stop-color:#9E611E"/>
							<stop  offset="1" style="stop-color:#7A430C"/>
						</linearGradient>
						<path class="st15" d="M627.3,543.8c0,9-7.3,16.3-16.3,16.3s-16.3-7.3-16.3-16.3s7.3-16.3,16.3-16.3S627.3,534.8,627.3,543.8z"
							/>
						<path class="st16" d="M611,560.3c-9.1,0-16.5-7.4-16.5-16.5c0-9.1,7.4-16.5,16.5-16.5c9.1,0,16.5,7.4,16.5,16.5
							C627.5,552.9,620.1,560.3,611,560.3z M611,527.7c-8.9,0-16.1,7.2-16.1,16.1s7.2,16.1,16.1,16.1c8.9,0,16.1-7.2,16.1-16.1
							S619.9,527.7,611,527.7z"/>
					</g>
				</g>
				<g>
					<g>
						<linearGradient id="SVGID_11_" gradientUnits="userSpaceOnUse" x1="785.6948" y1="543.783" x2="818.2834" y2="543.783">
							<stop  offset="0" style="stop-color:#9E611E"/>
							<stop  offset="1" style="stop-color:#7A430C"/>
						</linearGradient>
						<path class="st17" d="M785.7,543.8c0,9,7.3,16.3,16.3,16.3c9,0,16.3-7.3,16.3-16.3s-7.3-16.3-16.3-16.3
							C793,527.5,785.7,534.8,785.7,543.8z"/>
						<path class="st16" d="M802,560.3c-9.1,0-16.5-7.4-16.5-16.5c0-9.1,7.4-16.5,16.5-16.5c9.1,0,16.5,7.4,16.5,16.5
							C818.5,552.9,811.1,560.3,802,560.3z M802,527.7c-8.9,0-16.1,7.2-16.1,16.1s7.2,16.1,16.1,16.1c8.9,0,16.1-7.2,16.1-16.1
							S810.9,527.7,802,527.7z"/>
					</g>
				</g>
			</g>
			<g>
				<linearGradient id="SVGID_12_" gradientUnits="userSpaceOnUse" x1="431.8448" y1="302.3943" x2="879.1592" y2="302.3943">
					<stop  offset="0" style="stop-color:#9E611E"/>
					<stop  offset="1" style="stop-color:#7A430C"/>
				</linearGradient>
				<path class="st18" d="M643.8,265.2c0,0-67.1,9.1-169.7-90.9c0,0-3.6,3.4-8.9,9.7c-104.4,124.8,53,280.1,243.2,240.1
					c48.2-10.1,98-32.3,144.5-73.8c0,0,59.8-52.5-1.2-97.1c-14.2-10.4-31.7-17.8-50.8-22c-32.5-7.1-101.1-19.3-169-12.9L643.8,265.2
					z"/>
			</g>
			<linearGradient id="SVGID_13_" gradientUnits="userSpaceOnUse" x1="706.4916" y1="1317.3705" x2="706.4916" y2="935.0232">
				<stop  offset="0" style="stop-color:#F99F1C"/>
				<stop  offset="1" style="stop-color:#FC751A"/>
			</linearGradient>
			<path class="st19" d="M1080.9,1098.2l-13.2,104.2c-34.1,18.5-70.8,34.1-109.5,46.5c-6.3,2-12.7,4-19.2,5.9
				c-71.8,20.8-150.3,31.4-232.5,31.4c-82.9,0-161.9-10.8-234.2-31.9c-6.4-1.9-12.8-3.8-19.1-5.9c-38.2-12.4-74.3-27.7-107.9-46
				l-13.2-104.2c-9.4-74.5,24.7-141.7,82.5-157.2l166.4-44.5c9.4,35.6,26.5,65.8,48.4,87.1c21.9,21.3,48.6,33.8,77.1,33.8
				c57,0,106.8-49.8,125.5-120.9l166.4,44.5C1056.2,956.5,1090.3,1023.7,1080.9,1098.2z"/>
			<g>
				<path class="st20" d="M472.3,1254.2c-6.4-1.9-12.8-3.8-19.1-5.9c-0.3-13.6-0.5-48.6-0.7-52.4l13.7,31.9c3.2,7.5,5,15.4,5.9,23.4
					v0.1L472.3,1254.2z"/>
				<path class="st20" d="M958.9,1196c-0.1,3.9-0.3,39.7-0.7,52.9c-6.3,2-12.7,4-19.2,5.9l0.3-3.3c0,0,0-0.1,0-0.1
					c0.8-8.1,2.6-16,5.9-23.4L958.9,1196z"/>
			</g>
		</g>
		<path class="st8" d="M733.9,687.6l-8.6-112.9c-0.7-9.2-7.6-17.1-16.8-18.1c-10.8-1.1-20.1,6.8-20.9,17.3l-8.6,113.7
			c-0.2,2.3,1.6,4.2,3.9,4.2h6.2c3.2,0,5.9,2.4,6.4,5.6l0,0c0.7,4.9,4.9,8.6,9.9,8.6h2.3c5,0,9.2-3.7,9.9-8.6l0,0
			c0.4-3.2,3.2-5.6,6.4-5.6h6.1C732.3,691.8,734.1,689.9,733.9,687.6z"/>
		<g>
			<polygon class="st0" points="363.4,399.3 371.4,429.2 401.3,437.3 371.4,445.3 363.4,475.2 355.4,445.3 325.4,437.3 355.4,429.2 
							"/>
			<polygon class="st0" points="1004.7,566.1 1010.5,587.6 1032,593.4 1010.5,599.2 1004.7,620.7 998.9,599.2 977.4,593.4 
				998.9,587.6 			"/>
			<polygon class="st0" points="996.4,280.7 1003.1,306 1028.4,312.8 1003.1,319.5 996.4,344.8 989.6,319.5 964.3,312.8 989.6,306 
							"/>
			<polygon class="st0" points="411.2,628.6 415.7,645.5 432.5,650 415.7,654.5 411.2,671.3 406.7,654.5 389.9,650 406.7,645.5 			
				"/>
			<polygon class="st0" points="171.9,717.4 178.1,740.6 201.3,746.8 178.1,753 171.9,776.1 165.7,753 142.6,746.8 165.7,740.6 			
				"/>
			<polygon class="st0" points="1239.2,631.5 1244.1,649.9 1262.5,654.8 1244.1,659.8 1239.2,678.2 1234.2,659.8 1215.8,654.8 
				1234.2,649.9 			"/>
		</g>
	</g>
</g>
</svg>
