<svg width="49" height="54" viewBox="0 0 49 54" fill="none" xmlns="http://www.w3.org/2000/svg">
<g clip-path="url(#clip0_111_293)">
<path d="M21.9231 0.673448C23.2331 -0.0761415 24.9395 -0.0795273 26.2484 0.673448C32.8336 4.39299 39.4208 8.1067 46.0048 11.8285C47.2432 12.5258 48.0715 13.9035 48.0589 15.3298V37.708C48.0681 39.1935 47.1579 40.6041 45.8515 41.2856C39.2879 44.9846 32.7278 48.6881 26.1654 52.3872C24.8283 53.1514 23.0877 53.0926 21.7923 52.2657C19.8245 51.1254 17.8534 49.9908 15.8855 48.8516C15.4834 48.612 15.0301 48.4212 14.7461 48.0315C14.9971 47.6933 15.4459 47.6511 15.8106 47.5035C16.632 47.2424 17.3864 46.8233 18.1409 46.4166C18.3318 46.2861 18.5647 46.3361 18.7476 46.4529C20.4303 47.4173 22.0981 48.4098 23.7864 49.3649C24.1465 49.5728 24.5112 49.2968 24.8191 49.1253C31.2599 45.4865 37.7086 41.8613 44.1483 38.2214C44.3869 38.1066 44.5188 37.8534 44.4994 37.5922C44.5039 30.2101 44.5006 22.8267 44.5017 15.4446C44.529 15.1481 44.3574 14.8756 44.0892 14.7542C37.5485 11.0721 31.0111 7.38439 24.4715 3.70134C24.3582 3.62347 24.224 3.58169 24.0865 3.58149C23.949 3.58129 23.8146 3.62267 23.7011 3.70021C17.1615 7.38439 10.6253 11.0755 4.08566 14.7574C3.81846 14.879 3.63913 15.147 3.67093 15.4446C3.67206 22.8267 3.67093 30.2101 3.67093 37.5933C3.65959 37.7208 3.6876 37.8487 3.75119 37.9598C3.81477 38.0708 3.91088 38.1598 4.02658 38.2146C5.7717 39.2038 7.51909 40.1861 9.26534 41.1719C10.2491 41.7013 11.457 42.0158 12.5409 41.6102C13.4974 41.2673 14.1678 40.2916 14.1496 39.2764C14.1586 31.9374 14.1451 24.5973 14.1564 17.2594C14.1325 16.9336 14.4416 16.6644 14.7585 16.6951C15.597 16.6894 16.4367 16.6838 17.2752 16.6973C17.6252 16.6894 17.866 17.0403 17.8227 17.3685C17.8194 24.754 17.8318 32.1396 17.8171 39.5251C17.8194 41.4934 17.0104 43.6352 15.1891 44.5982C12.9453 45.7601 10.172 45.5137 7.95528 44.3996C6.03628 43.4422 4.20497 42.3122 2.32003 41.2865C1.01015 40.6088 0.104467 39.1925 0.113687 37.7082V15.3298C0.0999506 13.8739 0.961223 12.4712 2.23817 11.7841C8.80055 8.08206 15.3618 4.37719 21.9231 0.673448Z" fill="black"/>
<path d="M27.648 16.175C30.5102 15.9908 33.5742 16.0659 36.1498 17.4753C38.1438 18.5554 39.2494 20.8223 39.2846 23.0368C39.2289 23.3355 38.9165 23.5003 38.6312 23.4798C37.8008 23.4786 36.9702 23.4911 36.1398 23.4741C35.7875 23.4877 35.5828 23.163 35.5386 22.8517C35.3 21.7921 34.7219 20.7427 33.7242 20.2316C32.1926 19.4651 30.4168 19.5037 28.7468 19.5196C27.5276 19.5844 26.2166 19.6899 25.1837 20.4066C24.3908 20.9494 24.1499 22.0453 24.4329 22.9279C24.6997 23.5616 25.4315 23.7661 26.0303 23.9545C29.4795 24.8563 33.1346 24.7666 36.518 25.9533C37.9188 26.4371 39.2891 27.3776 39.7685 28.8437C40.3957 30.8086 40.1208 33.1573 38.7223 34.7347C37.5882 36.0328 35.9364 36.7393 34.2889 37.123C32.0972 37.6115 29.8228 37.624 27.5971 37.4071C25.5042 37.1686 23.3263 36.6189 21.7106 35.1935C20.329 33.9943 19.6542 32.1259 19.7212 30.3226C19.7372 30.018 20.0405 29.8057 20.3324 29.8307C21.1687 29.8239 22.0049 29.8217 22.8411 29.8318C23.1752 29.8079 23.4228 30.0965 23.4399 30.4112C23.5942 31.4207 23.9738 32.4803 24.8544 33.0788C26.554 34.1749 28.6866 34.0999 30.6327 34.1305C32.245 34.059 34.0548 34.0374 35.3705 32.9722C36.0647 32.3646 36.2704 31.3481 36.0828 30.4736C35.8795 29.7353 35.1069 29.3913 34.4434 29.1663C31.0384 28.0896 27.3425 28.4803 23.9704 27.2627C22.6014 26.7791 21.2776 25.8647 20.7517 24.4588C20.0178 22.4691 20.354 20.008 21.8991 18.4838C23.4057 16.9677 25.5804 16.3838 27.648 16.1748V16.175Z" fill="black"/>
</g>
<defs>
<clipPath id="clip0_111_293">
<rect width="48.1831" height="53.0449" fill="white"/>
</clipPath>
</defs>
</svg>
