<svg id="Layer_1" data-name="Layer 1" xmlns="http://www.w3.org/2000/svg" xmlns:xlink="http://www.w3.org/1999/xlink" viewBox="0 0 48.18 46.93"><defs><style>.cls-1{fill:none;}.cls-2{clip-path:url(#clip-path);}</style><clipPath id="clip-path" transform="translate(0 0)"><rect class="cls-1" width="48.18" height="46.94"/></clipPath></defs><g class="cls-2"><path d="M19.78,16.29a6,6,0,0,0-2.37-.4c-.53,0-1,0-1.37,0a4.58,4.58,0,0,0-.82,0v6.74c.28,0,.54,0,.78,0h1.06a7.49,7.49,0,0,0,2.31-.36A3.37,3.37,0,0,0,21,21.28a3.09,3.09,0,0,0,.62-2.06,3.35,3.35,0,0,0-.46-1.79A2.9,2.9,0,0,0,19.78,16.29Z" transform="translate(0 0)"/><path d="M39.65,0H8.53A8.52,8.52,0,0,0,0,8.53V38.41a8.52,8.52,0,0,0,8.53,8.53H39.65a8.52,8.52,0,0,0,8.53-8.53V8.53A8.52,8.52,0,0,0,39.65,0ZM24.81,23.37a6.85,6.85,0,0,1-3.23,2.45,13,13,0,0,1-4.52.68c-.48,0-.8,0-1,0s-.48,0-.86,0V32.9a.25.25,0,0,1-.22.28h-3.9c-.16,0-.24-.08-.24-.26V12.28c0-.14.06-.22.2-.22.34,0,.66,0,1.13,0l1.52,0,1.75,0c.62,0,1.22,0,1.83,0a11.82,11.82,0,0,1,4.13.62,7.1,7.1,0,0,1,2.69,1.64,6.52,6.52,0,0,1,1.47,2.29A7.71,7.71,0,0,1,26,19.1,7.12,7.12,0,0,1,24.81,23.37Zm14.24,7.8A5.06,5.06,0,0,1,36.8,33a9.22,9.22,0,0,1-3.63.64,13.81,13.81,0,0,1-2.73-.26,8,8,0,0,1-2.05-.64.39.39,0,0,1-.22-.38V28.83a.22.22,0,0,1,.08-.18c.06,0,.12,0,.18,0a8.51,8.51,0,0,0,2.49,1,9.33,9.33,0,0,0,2.37.3A3.82,3.82,0,0,0,35,29.67a.93.93,0,0,0,.54-.84A1.06,1.06,0,0,0,35,28a8.48,8.48,0,0,0-2-.94,12.38,12.38,0,0,1-2.86-1.44,5.21,5.21,0,0,1-1.52-1.71,4.29,4.29,0,0,1-.46-2,4.71,4.71,0,0,1,.68-2.43A5,5,0,0,1,31,17.61a7.8,7.8,0,0,1,3.55-.7,17.38,17.38,0,0,1,2.49.18,7.11,7.11,0,0,1,1.73.46.35.35,0,0,1,.2.18A1,1,0,0,1,39,18v3.26a.25.25,0,0,1-.1.2.53.53,0,0,1-.36,0,7.27,7.27,0,0,0-1.93-.68,10.64,10.64,0,0,0-2.25-.26,4,4,0,0,0-1.2.14,1.05,1.05,0,0,0-.63.4,1.07,1.07,0,0,0-.16.55.89.89,0,0,0,.2.52,2.3,2.3,0,0,0,.69.54c.46.24.94.46,1.42.66a14.34,14.34,0,0,1,3.09,1.46,4.71,4.71,0,0,1,1.59,1.67,4.32,4.32,0,0,1,.46,2.06A4.66,4.66,0,0,1,39.05,31.17Z" transform="translate(0 0)"/></g></svg>