<svg id="Layer_1" data-name="Layer 1" xmlns="http://www.w3.org/2000/svg" viewBox="0 0 48.18 46.98"><path d="M20.38,16.3A6,6,0,0,0,18,15.9c-.52,0-1,0-1.37,0a4.58,4.58,0,0,0-.82,0v6.75c.28,0,.54,0,.78,0h1.07A7.58,7.58,0,0,0,20,22.37a3.53,3.53,0,0,0,1.64-1.07,3.1,3.1,0,0,0,.62-2.07,3.29,3.29,0,0,0-.46-1.78A2.87,2.87,0,0,0,20.38,16.3Z"/><path d="M39.65,0H8.53A8.52,8.52,0,0,0,0,8.53V38.45A8.52,8.52,0,0,0,8.53,47H39.65a8.52,8.52,0,0,0,8.53-8.53V8.53A8.52,8.52,0,0,0,39.65,0ZM25.42,23.39a6.93,6.93,0,0,1-3.24,2.45,13,13,0,0,1-4.51.68c-.48,0-.81,0-1,0s-.48,0-.86,0v6.45a.25.25,0,0,1-.22.28h-3.9c-.16,0-.24-.08-.24-.26V12.29c0-.14.06-.22.2-.22.35,0,.67,0,1.13,0l1.52,0L16,12c.62,0,1.23,0,1.83,0a11.82,11.82,0,0,1,4.13.62,7.1,7.1,0,0,1,2.69,1.64,6.38,6.38,0,0,1,1.47,2.29,7.76,7.76,0,0,1,.46,2.61A7.21,7.21,0,0,1,25.42,23.39ZM39.11,21c0,.16-.1.22-.32.22a8.73,8.73,0,0,0-2.17.2,8.32,8.32,0,0,0-1.69.54,3.14,3.14,0,0,0-1,.75V32.93c0,.2-.08.28-.26.28h-4a.28.28,0,0,1-.32-.24V21.76c0-.48,0-1,0-1.5s0-1.05,0-1.57,0-.9-.08-1.36a.18.18,0,0,1,.14-.22s0,0,.06,0H33a.45.45,0,0,1,.42.32,2,2,0,0,1,.12.5c0,.2.08.42.1.62s0,.46,0,.72a7.35,7.35,0,0,1,2.15-1.72,6.11,6.11,0,0,1,3-.79.25.25,0,0,1,.28.22Z"/></svg>